<svg width="64" height="64" viewBox="0 0 64 64" fill="none" xmlns="http://www.w3.org/2000/svg">
<path fill-rule="evenodd" clip-rule="evenodd" d="M11.2627 55.604L9.52674 9.37595C9.47207 7.84929 10.6454 6.55729 12.1694 6.46395L42.9801 4.53729L45.3334 5.33329L48.3934 4.19862L51.4814 4.00529C53.0321 3.90662 54.3694 5.08395 54.4694 6.63462C54.4734 6.69462 54.4747 6.75595 54.4747 6.81729V57.1866C54.4734 58.7426 53.2107 60.0026 51.6547 60.0013C51.6134 60.0013 51.5721 60 51.5321 59.9986L13.9507 58.3106C12.4867 58.2453 11.3187 57.0693 11.2627 55.604Z" fill="#FF4081"/>
<path fill-rule="evenodd" clip-rule="evenodd" d="M48.3904 4.19861L42.9811 4.53461L42.7184 10.8826C42.7091 11.1146 42.8891 11.3093 43.1211 11.3199C43.2184 11.3239 43.3131 11.2946 43.3904 11.2359L45.8544 9.36528L47.9371 11.0066C48.1184 11.1506 48.3838 11.1199 48.5264 10.9386C48.5878 10.8599 48.6198 10.7626 48.6171 10.6626L48.3931 4.19994L48.3904 4.19861ZM44.1798 25.4506C43.1918 26.2199 35.8104 26.7439 35.8104 25.6493C35.9678 21.4693 34.0971 21.2866 33.0558 21.2866C32.0704 21.2866 30.4064 21.5839 30.4064 23.8239C30.4064 26.1053 32.8371 27.3933 35.6904 28.9053C39.7424 31.0533 44.6504 33.6546 44.6504 40.1946C44.6504 46.4666 39.5544 49.9279 33.0584 49.9279C26.3531 49.9279 20.4918 47.2146 21.1531 37.8093C21.4131 36.7066 29.9398 36.9693 29.9398 37.8093C29.8331 41.6906 30.7184 42.8319 32.9531 42.8319C34.6691 42.8319 35.4478 41.8853 35.4478 40.2946C35.4478 37.8839 32.9171 36.4613 30.0024 34.8266C26.0571 32.6119 21.4144 30.0053 21.4144 24.0213C21.4144 18.0519 25.5198 14.0706 32.8491 14.0706C40.1784 14.0706 44.1798 17.9919 44.1798 25.4506Z" fill="white"/>
</svg>
